<?xml version="1.0" encoding="utf-8"?>
<!-- Generator: Adobe Illustrator 24.1.1, SVG Export Plug-In . SVG Version: 6.00 Build 0)  -->
<svg version="1.1" id="Слой_1" xmlns="http://www.w3.org/2000/svg" xmlns:xlink="http://www.w3.org/1999/xlink" x="0px" y="0px"
	 viewBox="0 0 200.17 120.51" style="enable-background:new 0 0 200.17 120.51;" xml:space="preserve">
<style type="text/css">
	.st0{enable-background:new    ;}
	.st1{fill:#FF004F;}
</style>
<g class="st0">
	<path class="st1" d="M50.61,51.72c4.99,0,8.8-1.97,11.44-5.9C64.68,41.89,66,35.94,66,27.96h0.81v24.71H26.26v-0.8
		c1.82,0,3.37-0.08,4.65-0.24c1.28-0.16,2.16-0.36,2.63-0.6c0.47-0.24,0.78-0.53,0.93-0.88c0.14-0.35,0.22-1.27,0.22-2.77V6.3
		c0-1.55-0.08-2.51-0.25-2.89c-0.08-0.21-0.36-0.43-0.84-0.64c-0.48-0.21-1.41-0.43-2.79-0.64c-1.39-0.21-2.9-0.32-4.56-0.32V1.09
		h25.48v0.72c-2.32,0-4.12,0.08-5.43,0.24c-1.3,0.16-2.22,0.37-2.76,0.64c-0.54,0.27-0.85,0.51-0.93,0.72
		c-0.21,0.48-0.31,1.44-0.31,2.89v41c0,1.55,0.08,2.54,0.25,2.97c0.08,0.21,0.33,0.43,0.74,0.64
		C44.71,51.45,47.14,51.72,50.61,51.72z"/>
	<path class="st1" d="M75.06,36.2c0,5.73,0.53,9.89,1.58,12.46c1.05,2.57,2.66,3.86,4.8,3.86c2.27,0,4.28-0.99,6.01-2.98
		c2.11-2.41,3.16-5.69,3.16-9.82h0.5c0,4-0.99,7.28-2.98,9.84c-1.98,2.56-4.63,3.84-7.94,3.84c-2.77,0-5.29-1.36-7.56-4.08
		c-2.69-3.2-4.03-7.38-4.03-12.56c0-5.6,1.32-10.16,3.97-13.68c2.31-3.04,4.92-4.56,7.81-4.56c2.69,0,4.92,1.01,6.7,3.04
		c2.6,2.99,3.91,7.87,3.91,14.64H75.06z M85.72,35.24c0-5.17-0.36-9.12-1.07-11.84c-0.71-2.72-1.87-4.08-3.46-4.08
		c-2.25,0-3.83,1.29-4.75,3.88c-0.92,2.59-1.38,6.6-1.38,12.04H85.72z"/>
	<path class="st1" d="M104.69,38.28v10.54c0,1.07,0.06,1.77,0.19,2.09c0.08,0.16,0.28,0.32,0.59,0.48c0.31,0.16,0.86,0.29,1.64,0.4
		c0.78,0.11,1.43,0.16,1.92,0.16v0.72h-16v-0.72c2.48,0,4.15-0.19,5.02-0.56l0.43-0.24c0.25-0.27,0.37-1.04,0.37-2.33V5.98
		c0-1.07-0.12-1.83-0.37-2.29c-0.25-0.46-0.48-0.71-0.68-0.76c-0.66-0.27-2.23-0.4-4.71-0.4V1.81l11.59-1.36v36.39l7.81-10.09
		c1.24-1.56,1.86-2.96,1.86-4.2c0-1.02-0.43-1.82-1.3-2.38c-0.87-0.56-2.19-0.85-3.97-0.85v-0.8h14.2v0.8
		c-1.57,0-2.8,0.29-3.69,0.88c-0.89,0.59-2.1,1.79-3.63,3.62l-3.84,4.9l7.94,20.42c0.46,1.18,1.02,1.94,1.71,2.29
		c0.68,0.35,1.81,0.52,3.38,0.52v0.72h-15.13v-0.72c1.36,0,2.42-0.04,3.16-0.12c0.74-0.08,1.12-0.47,1.12-1.17
		c0-0.32-0.17-0.91-0.5-1.77l-5.83-14.94L104.69,38.28z"/>
	<path class="st1" d="M141.83,29.45v-4.66c0-2.14-0.26-3.59-0.79-4.34c-0.53-0.75-1.66-1.13-3.41-1.13c-1.42,0-2.67,0.35-3.74,1.06
		c-1.07,0.71-1.77,1.66-2.1,2.86c0.16-0.05,0.37-0.08,0.62-0.08c0.78,0,1.43,0.4,1.92,1.2s0.74,1.71,0.74,2.72
		c0,1.17-0.31,2.13-0.94,2.88c-0.63,0.75-1.36,1.12-2.19,1.12c-0.54,0-1.02-0.19-1.44-0.56c-1.21-1.01-1.81-2.29-1.81-3.84
		c0-0.75,0.12-1.6,0.37-2.56c0.58-2.08,2.03-3.6,4.34-4.56c1.65-0.69,3.33-1.04,5.02-1.04c3.06,0,5.37,0.74,6.94,2.23
		c1.4,1.33,2.11,3.01,2.11,5.03v17.63c0,3.19,0.06,5.16,0.19,5.9c0.29,1.81,1.03,2.71,2.23,2.71c1.07,0,1.8-0.71,2.17-2.15
		c0.37-1.43,0.56-3.5,0.56-6.2c0-0.74-0.01-1.48-0.03-2.23c-0.02-0.74-0.03-1.51-0.03-2.31v-0.72h0.74v3.52
		c0,1.12,0.02,2.19,0.06,3.2c0,3.09-0.29,5.17-0.87,6.24c-0.75,1.33-2.26,2-4.55,2c-1.79,0-3.12-0.4-3.99-1.19
		c-1.04-0.95-1.73-2.56-2.06-4.83c-0.87,2.59-2.17,4.33-3.91,5.23c-1.03,0.53-2.42,0.79-4.15,0.79c-1.74,0-3.25-0.53-4.53-1.6
		c-1.78-1.44-2.67-3.63-2.67-6.57c0-2.88,0.87-5.31,2.59-7.29c1.73-1.92,3.83-3.02,6.3-3.28c2.47-0.27,4.14-0.69,5-1.28
		S141.83,31.48,141.83,29.45z M141.64,43.92V33.23c-0.5,0.86-1.23,1.38-2.2,1.57c-0.97,0.19-1.91,0.36-2.82,0.52
		c-1.2,0.38-2.15,1.23-2.85,2.57c-0.83,1.61-1.24,3.86-1.24,6.75c0,3.11,0.24,5.21,0.71,6.31c0.47,1.1,1.23,1.65,2.26,1.65
		c1.57,0,2.98-0.84,4.25-2.53C141.01,48.38,141.64,46.33,141.64,43.92z"/>
	<path class="st1" d="M166.32,48.83c0,1.07,0.06,1.76,0.19,2.08c0.08,0.16,0.27,0.32,0.56,0.48c0.87,0.37,2.67,0.56,5.39,0.56v0.72
		h-18.1v-0.72c1.2,0,2.28-0.05,3.25-0.16c0.97-0.11,1.81-0.32,2.51-0.64c0.25-0.27,0.37-1.04,0.37-2.33V5.98
		c0-1.07-0.12-1.82-0.37-2.25c-0.25-0.43-0.5-0.69-0.74-0.8c-0.74-0.27-2.4-0.4-4.96-0.4V1.81l11.9-1.36V48.83z"/>
	<path class="st1" d="M199.49,35.88c0,5.17-1.38,9.47-4.15,12.88c-2.52,3.09-5.35,4.64-8.49,4.64c-3.22,0-6.04-1.44-8.43-4.32
		c-2.81-3.36-4.22-7.76-4.22-13.2c0-5.17,1.38-9.44,4.15-12.8c2.52-3.04,5.35-4.56,8.49-4.56c3.18,0,5.99,1.44,8.43,4.32
		C198.08,26.15,199.49,30.5,199.49,35.88z M193.04,35.88c0-5.92-0.39-10.08-1.18-12.48c-0.91-2.77-2.58-4.16-5.02-4.16
		c-2.23,0-3.82,1.33-4.77,4c-0.95,2.67-1.43,6.88-1.43,12.64c0,5.87,0.42,10.13,1.27,12.8c0.85,2.67,2.49,4,4.93,4
		c2.23,0,3.82-1.36,4.77-4.08C192.56,45.88,193.04,41.64,193.04,35.88z"/>
</g>
<g class="st0">
	<path class="st1" d="M42.51,68.09l10.44,37.27l8.72-37.27h17.17v0.72c-3.76,0-6.24,0.32-7.44,0.96c-0.41,0.21-0.66,0.43-0.74,0.64
		c-0.21,0.48-0.31,1.44-0.31,2.89v41.08c0,1.61,0.08,2.59,0.25,2.97c0.08,0.21,0.38,0.44,0.9,0.68c0.52,0.24,1.42,0.44,2.7,0.6
		c1.28,0.16,2.83,0.24,4.65,0.24v0.8H54.91v-0.8c1.49,0,2.86-0.08,4.12-0.24c1.26-0.16,2.13-0.36,2.6-0.6
		c0.47-0.24,0.75-0.47,0.84-0.68c0.16-0.43,0.25-1.41,0.25-2.96l-0.06-43.58c0-0.91-0.08-1.36-0.25-1.36c-0.17,0-0.35,0.4-0.56,1.2
		l-11.32,49.03h-1.36L35.81,70.65l-0.49-1.2c-0.12,0-0.19,0.45-0.19,1.36v33.51c0,5.92,0.61,9.82,1.83,11.72
		c1.22,1.89,3.52,2.84,6.91,2.84v0.8H26.32v-0.8c2.89,0,4.94-0.96,6.14-2.89c1.2-1.93,1.8-5.19,1.8-9.79V81.41
		c0-4.71-0.56-7.98-1.67-9.83c-1.12-1.84-3.2-2.77-6.26-2.77v-0.8L42.51,68.09z"/>
	<path class="st1" d="M105,102.88c0,5.17-1.39,9.47-4.15,12.88c-2.52,3.09-5.35,4.64-8.49,4.64c-3.22,0-6.04-1.44-8.43-4.32
		c-2.81-3.36-4.22-7.76-4.22-13.2c0-5.17,1.38-9.44,4.15-12.8c2.52-3.04,5.35-4.56,8.49-4.56c3.18,0,5.99,1.44,8.43,4.32
		C103.6,93.16,105,97.5,105,102.88z M98.55,102.88c0-5.92-0.39-10.08-1.18-12.48c-0.91-2.77-2.58-4.16-5.02-4.16
		c-2.23,0-3.82,1.33-4.77,4c-0.95,2.67-1.43,6.88-1.43,12.64c0,5.87,0.42,10.13,1.27,12.8c0.85,2.67,2.49,4,4.93,4
		c2.23,0,3.82-1.36,4.77-4.08C98.08,112.88,98.55,108.64,98.55,102.88z"/>
	<path class="st1" d="M124.84,108.59c0,2.61-0.5,5.05-1.49,7.34c-1.28,2.98-3.06,4.47-5.33,4.47c-2.98,0-5.44-1.47-7.38-4.4
		c-2.11-3.2-3.16-7.6-3.16-13.2c0-3.84,0.97-7.52,2.91-11.04c2.27-4.16,5.15-6.24,8.62-6.24c1.86,0,3.33,1.33,4.4,3.99
		c0.74,1.86,1.22,3.91,1.43,6.14V72.98c0-1.07-0.13-1.82-0.37-2.24s-0.6-0.69-1.05-0.8c-1.03-0.27-3.35-0.4-6.94-0.4v-0.72
		l14.2-1.36v47.58c0,1.07,0.06,1.76,0.19,2.08c0.08,0.16,0.27,0.32,0.56,0.48c0.87,0.37,2.56,0.56,5.08,0.56v0.72l-11.66,1.52
		V108.59z M124.53,102.72c0-5.36-0.48-9.43-1.43-12.22c-0.95-2.79-2.25-4.18-3.91-4.18c-1.98,0-3.36,1.19-4.12,3.58
		c-0.77,2.38-1.15,6.71-1.15,12.98c0,5.68,0.23,9.64,0.68,11.89c0.66,3.27,2.02,4.9,4.09,4.9c1.4,0,2.67-1.37,3.78-4.1
		C123.85,112.31,124.53,108.03,124.53,102.72z"/>
</g>
<g class="st0">
	<path class="st1" d="M0.55,120.11v-13.81h13.81v13.81H0.55z"/>
</g>
</svg>
